<svg width="244" height="97" viewBox="0 0 244 97" fill="none" xmlns="http://www.w3.org/2000/svg">
<path d="M214.648 45.1297C176.439 12.0589 80.1493 -33.7572 0.661932 47.5452C37.8823 81.6273 132.788 128.859 214.648 45.1297Z" fill="#076407"/>
<path d="M215 4C219 18.4 201.333 39.3333 192 48C214.4 48 216.667 80.6667 215 97H244V4H215Z" fill="#076407"/>
<path d="M70.5 31C60.1 39 43.8333 41.6667 37 42C39.1667 47.8333 48.1 59.5 66.5 59.5C92.5 58.7 94 40.1667 91.5 31L106.5 22C98.8333 21.6667 80.9 23 70.5 31Z" fill="black"/>
<mask id="mask0_1_51" style="mask-type:alpha" maskUnits="userSpaceOnUse" x="40" y="31" width="53" height="29">
<path d="M92 31L40.5 47.5C46 56.5 58 63 77.5 58C93.1 54 93.6667 38.3333 92 31Z" fill="white"/>
</mask>
<g mask="url(#mask0_1_51)">
<path d="M72 45C66.8 57.8 53.8333 50.3333 48 45C48 42.6 67.3333 37 77 34.5C76.3333 35 74.4 37.8 72 45Z" fill="#BD1F1F"/>
</g>
<mask id="mask1_1_51" style="mask-type:alpha" maskUnits="userSpaceOnUse" x="48" y="34" width="29" height="19">
<mask id="mask2_1_51" style="mask-type:alpha" maskUnits="userSpaceOnUse" x="40" y="31" width="53" height="29">
<path d="M92 31L40.5 47.5C46 56.5 58 63 77.5 58C93.1 54 93.6667 38.3333 92 31Z" fill="white"/>
</mask>
<g mask="url(#mask2_1_51)">
<path d="M72 45C66.8 57.8 53.8333 50.3333 48 45C48 42.6 67.3333 37 77 34.5C76.3333 35 74.4 37.8 72 45Z" fill="#BD1F1F"/>
</g>
</mask>
<g mask="url(#mask1_1_51)">
<path d="M62.5 46.5C58.9 50.1 55.3333 45 54 42L66 37C66.3333 38.6667 66.1 42.9 62.5 46.5Z" fill="#D9D9D9"/>
</g>
<mask id="mask3_1_51" style="mask-type:alpha" maskUnits="userSpaceOnUse" x="0" y="2" width="215" height="91">
<path d="M214.648 45.1297C176.439 12.0589 80.1493 -33.7572 0.661932 47.5452C37.8823 81.6273 132.788 128.859 214.648 45.1297Z" fill="#076407"/>
</mask>
<g mask="url(#mask3_1_51)">
<path d="M126 43.5C102.4 46.3 61.8333 70.3333 44.5 82L80 93.5C83.5 92.1667 91.9 86.1 97.5 72.5C103.1 58.9 118.833 47.5 126 43.5Z" fill="black"/>
<path d="M72 80.5C69.2 83.7 61.5 81.8333 58 80.5C79.6 60.1 98 55 104.5 55C101.7 65.4 89 80.6667 83 87L76.5 83.5C81.3 83.5 84.8333 81.5 86 80.5L80 77.5C84 78.3083 89.6667 75.1701 92 73.5L88.5 70C92.5 70 95.5 68.6667 96.5 68L95 65.5C98.2 65.5 100 61.5 100.5 59.5L95 57.5L97 59.5C97 63.5 89.6667 64.1667 86 64L88.5 67C84.9 69.8 78 70.1667 75 70L81 72C83 75.2 72.5 77.3333 67 78L72 80.5Z" fill="#D9D9D9"/>
</g>
</svg>
